HIERARCHY
ROOT Hips
{
 OFFSET 0.000000 0.000000 0.000000
 CHANNELS 6 Xposition Yposition Zposition Yrotation Xrotation Zrotation
 JOINT Chest
 {
  OFFSET 0.000000 9.585900 0.002600
  CHANNELS 3 Yrotation Xrotation Zrotation
  JOINT Chest2
  {
   OFFSET 0.000000 9.601200 -0.005300
   CHANNELS 3 Yrotation Xrotation Zrotation
   JOINT Chest3
   {
    OFFSET 0.000000 9.561800 0.000000
    CHANNELS 3 Yrotation Xrotation Zrotation
    JOINT Chest4
    {
     OFFSET 0.000000 9.552100 0.000000
     CHANNELS 3 Yrotation Xrotation Zrotation
     JOINT Neck
     {
      OFFSET 0.000000 14.453000 0.000000
      CHANNELS 3 Yrotation Xrotation Zrotation
      JOINT Head
      {
       OFFSET 0.000000 8.936500 -0.011300
       CHANNELS 3 Yrotation Xrotation Zrotation
       End Site
       {
        OFFSET 0.000000 17.073600 -0.006000
       }
      }
     }
     JOINT RightCollar
     {
      OFFSET -2.921100 9.558500 0.000000
      CHANNELS 3 Yrotation Xrotation Zrotation
      JOINT RightShoulder
      {
       OFFSET -13.519700 0.000000 0.000000
       CHANNELS 3 Yrotation Xrotation Zrotation
       JOINT RightElbow
       {
        OFFSET 0.000000 -29.696600 0.000000
        CHANNELS 3 Yrotation Xrotation Zrotation
        JOINT RightWrist
        {
         OFFSET 0.000000 -24.004700 0.000000
         CHANNELS 3 Yrotation Xrotation Zrotation
         End Site
         {
          OFFSET 0.000000 -17.728500 0.000000
         }
        }
       }
      }
     }
     JOINT LeftCollar
     {
      OFFSET 2.921100 9.558500 0.000000
      CHANNELS 3 Yrotation Xrotation Zrotation
      JOINT LeftShoulder
      {
       OFFSET 13.519700 0.000000 0.000000
       CHANNELS 3 Yrotation Xrotation Zrotation
       JOINT LeftElbow
       {
        OFFSET 0.000000 -29.696600 0.000000
        CHANNELS 3 Yrotation Xrotation Zrotation
        JOINT LeftWrist
        {
         OFFSET 0.000000 -24.004700 0.000000
         CHANNELS 3 Yrotation Xrotation Zrotation
         End Site
         {
          OFFSET 0.000000 -17.728500 0.000000
         }
        }
       }
      }
     }
    }
   }
  }
 }
 JOINT RightHip
 {
  OFFSET -7.771700 -0.012900 -0.001300
  CHANNELS 3 Yrotation Xrotation Zrotation
  JOINT RightKnee
  {
   OFFSET 0.000000 -40.869800 0.001200
   CHANNELS 3 Yrotation Xrotation Zrotation
   JOINT RightAnkle
   {
    OFFSET 0.000000 -39.717900 0.002100
    CHANNELS 3 Yrotation Xrotation Zrotation
    JOINT RightToe
    {
     OFFSET 0.000000 -4.965400 11.033500
     CHANNELS 3 Yrotation Xrotation Zrotation
     End Site
     {
      OFFSET 0.000000 -1.423100 5.872300
     }
    }
   }
  }
 }
 JOINT LeftHip
 {
  OFFSET 7.771700 -0.012900 -0.001300
  CHANNELS 3 Yrotation Xrotation Zrotation
  JOINT LeftKnee
  {
   OFFSET 0.000000 -40.869800 0.001200
   CHANNELS 3 Yrotation Xrotation Zrotation
   JOINT LeftAnkle
   {
    OFFSET 0.000000 -39.717900 0.002100
    CHANNELS 3 Yrotation Xrotation Zrotation
    JOINT LeftToe
    {
     OFFSET 0.000000 -4.965400 11.033500
     CHANNELS 3 Yrotation Xrotation Zrotation
     End Site
     {
      OFFSET 0.000000 -1.423100 5.872300
     }
    }
   }
  }
 }
}
MOTION
Frames: 16
Frame Time: 0.008333
-222.035631 57.152639 136.126346 -179.377521 -29.892914 -1.107895 0.333617 19.870983 2.104437 -0.016244 2.451226 0.299399 -0.028606 4.037571 0.482112 0.126637 17.134767 2.077533 -1.908479 15.763167 -1.276049 -3.108567 -6.432150 -1.718798 3.216809 -1.352601 -1.857814 1.226442 -15.613359 -10.850190 136.013758 -50.520539 -124.976851 10.104697 -21.626512 -51.490579 -5.863377 -0.978291 -0.750154 25.025451 -10.430007 -1.506696 -151.874712 -37.831225 148.754546 -15.500431 -20.089015 35.441553 3.968737 -46.849483 -8.593574 -11.834095 67.168918 -14.559190 8.233416 28.040406 2.482063 -1.144531 -18.652007 7.062200 -11.434917 -44.173788 1.513177 29.496320 71.016747 30.438590 -13.466985 2.817820 -4.405052 0.197599 0.418532 0.113072
-222.040182 57.155528 136.122964 -179.362949 -29.875660 -1.105761 0.320373 19.848407 2.099227 -0.011458 2.443300 0.304804 -0.036077 4.043218 0.475562 0.127911 17.088596 2.092368 -1.906795 15.726142 -1.297256 -3.104890 -6.510154 -1.755805 3.223080 -1.355150 -1.875006 1.203662 -15.609586 -10.862248 136.049065 -50.443617 -125.051606 10.110357 -21.618426 -51.494731 -5.836405 -0.987417 -0.746917 25.036153 -10.319200 -1.517934 -151.904800 -37.834945 148.764862 -15.490531 -20.081357 35.436792 3.964884 -46.861728 -8.598729 -11.850442 67.170607 -14.588875 8.223969 28.025178 2.480547 -1.136527 -18.642394 7.069283 -11.426866 -44.191447 1.506374 29.462317 71.022575 30.392159 -13.455911 2.831771 -4.384371 0.185364 0.415330 0.103762
-222.045787 57.157509 136.121019 -179.343152 -29.846534 -1.100235 0.306226 19.815392 2.094853 -0.012930 2.435979 0.304895 -0.035855 4.030073 0.477204 0.132169 17.017540 2.117161 -1.923944 15.730603 -1.335257 -3.101253 -6.589206 -1.791617 3.211856 -1.315261 -1.902323 1.182947 -15.610941 -10.878148 136.079783 -50.400811 -125.097283 10.074455 -21.584919 -51.470894 -5.823891 -0.958550 -0.764333 25.045815 -10.197349 -1.533005 -151.934349 -37.838834 148.767201 -15.482307 -20.077341 35.436103 3.963281 -46.886553 -8.613653 -11.863862 67.173915 -14.618695 8.216511 28.007647 2.483270 -1.111793 -18.633405 7.069756 -11.429836 -44.222407 1.495672 29.466017 71.022626 30.376611 -13.441158 2.841746 -4.355191 0.166033 0.413453 0.091344
-222.050799 57.158986 136.119869 -179.331205 -29.809969 -1.094382 0.303352 19.770893 2.102803 -0.022460 2.438183 0.292846 -0.030455 4.012217 0.482841 0.121653 16.989418 2.121217 -1.923580 15.690304 -1.354493 -3.093608 -6.664305 -1.827168 3.221004 -1.380966 -1.922062 1.155746 -15.556110 -10.886080 136.104684 -50.374461 -125.125766 10.094353 -21.583907 -51.492415 -5.798303 -0.973135 -0.761335 25.057606 -10.061285 -1.554945 -151.963062 -37.841105 148.761684 -15.480569 -20.072531 35.441764 3.966962 -46.919582 -8.628713 -11.872934 67.173157 -14.635091 8.193871 28.003658 2.477686 -1.116642 -18.624014 7.078830 -11.415713 -44.260156 1.488905 29.478686 71.019160 30.373238 -13.447463 2.850833 -4.323353 0.156036 0.411908 0.080215
-222.054700 57.161229 136.117334 -179.324134 -29.780672 -1.092588 0.295314 19.738429 2.101020 -0.023253 2.420804 0.298599 -0.031411 3.973874 0.489105 0.109605 16.989090 2.116877 -1.920289 15.654174 -1.373805 -3.087568 -6.651584 -1.846721 3.230745 -1.412655 -1.943689 1.131509 -15.530782 -10.891791 136.129057 -50.347290 -125.152425 10.115369 -21.582878 -51.510764 -5.767841 -0.982442 -0.758489 25.079247 -9.911002 -1.584550 -151.996829 -37.842059 148.751934 -15.484421 -20.072132 35.450291 3.968015 -46.946170 -8.638258 -11.874276 67.174503 -14.642458 8.195521 27.999369 2.476899 -1.111859 -18.620008 7.084049 -11.400054 -44.287804 1.484354 29.470528 71.018083 30.361268 -13.445676 2.856382 -4.311426 0.148629 0.410529 0.079920
-222.059062 57.164653 136.112687 -179.318069 -29.763351 -1.086962 0.285685 19.715979 2.094922 -0.027396 2.400222 0.303854 -0.033852 3.962862 0.487531 0.097725 16.959076 2.120707 -1.915094 15.622724 -1.394065 -3.067290 -6.750913 -1.894371 3.243791 -1.384073 -1.961021 1.108076 -15.561687 -10.906162 136.154590 -50.322433 -125.179795 10.110935 -21.573918 -51.506579 -5.729146 -0.985050 -0.755871 25.080129 -9.795989 -1.599405 -152.010870 -37.864418 148.740401 -15.482529 -20.049106 35.452026 3.971957 -46.958378 -8.644293 -11.879954 67.177037 -14.664012 8.207414 27.983446 2.477870 -1.085402 -18.614693 7.089617 -11.373214 -44.305935 1.465446 29.487625 71.016032 30.374243 -13.443635 2.868813 -4.288789 0.138460 0.401034 0.072779
-222.063277 57.167756 136.108573 -179.292005 -29.739181 -1.090758 0.256465 19.681368 2.091360 -0.030165 2.394956 0.301622 -0.040145 3.939005 0.488693 0.082325 16.925583 2.123625 -1.909330 15.596629 -1.414730 -3.045388 -6.839034 -1.943411 3.261789 -1.350629 -1.978248 1.083725 -15.598191 -10.922873 136.185281 -50.302068 -125.207124 10.061838 -21.540592 -51.468910 -5.681293 -0.980174 -0.753511 25.082716 -9.679680 -1.616974 -152.010812 -37.909788 148.725791 -15.486880 -20.047191 35.457065 3.953394 -46.978332 -8.645899 -11.876385 67.185126 -14.682770 8.175779 27.966143 2.495452 -1.049061 -18.607230 7.070778 -11.362724 -44.331562 1.447917 29.471239 71.018071 30.366298 -13.448789 2.876044 -4.287161 0.141700 0.394870 0.078561
-222.064110 57.170120 136.105871 -179.273745 -29.702327 -1.108795 0.236530 19.634468 2.104986 -0.026559 2.400005 0.296735 -0.052959 3.900584 0.491044 0.065024 16.889371 2.124043 -1.902959 15.576766 -1.434223 -3.026344 -6.876231 -1.981792 3.284855 -1.358983 -2.000090 1.055184 -15.595354 -10.929141 136.218029 -50.281302 -125.227502 10.076953 -21.554887 -51.480269 -5.629119 -0.969945 -0.750810 25.175327 -9.438384 -1.711014 -152.080007 -37.839263 148.708553 -15.502477 -20.118329 35.470896 3.912910 -47.013698 -8.613714 -11.877094 67.187413 -14.702280 8.139206 27.961596 2.486288 -1.088925 -18.596469 7.091259 -11.334820 -44.365892 1.444900 29.412404 71.023834 30.335437 -13.456436 2.877367 -4.288235 0.149102 0.394371 0.088188
-222.067971 57.171803 136.104204 -179.255174 -29.655222 -1.106219 0.204554 19.576338 2.093552 -0.029022 2.387514 0.296319 -0.049645 3.901866 0.487371 0.039201 16.825439 2.122203 -1.891113 15.588824 -1.450125 -3.011980 -6.927724 -2.015250 3.308560 -1.368903 -2.018274 1.024786 -15.590941 -10.932280 136.241908 -50.254346 -125.234808 10.094482 -21.578552 -51.501699 -5.582502 -0.937068 -0.752034 25.248977 -9.261242 -1.786602 -152.142885 -37.747106 148.693265 -15.495740 -20.049950 35.466514 3.899052 -47.057813 -8.621690 -11.874836 67.188383 -14.713426 8.121581 27.956768 2.474091 -1.100264 -18.589951 7.107451 -11.319734 -44.415145 1.430853 29.439411 71.013248 30.355103 -13.463598 2.895317 -4.260992 0.129043 0.386497 0.078949
-222.069816 57.172172 136.104745 -179.240286 -29.589605 -1.110706 0.176455 19.496477 2.089037 -0.031179 2.374577 0.295204 -0.058771 3.863079 0.483276 0.025866 16.797829 2.118208 -1.868219 15.658991 -1.460942 -3.009632 -7.022556 -2.042581 3.319945 -1.462412 -2.052379 1.001625 -15.503364 -10.913925 136.258638 -50.222882 -125.235263 10.092094 -21.584118 -51.510648 -5.527461 -0.915506 -0.748051 25.309278 -9.092529 -1.848564 -152.144770 -37.735365 148.668649 -15.494152 -20.056138 35.463218 3.881422 -47.122149 -8.621312 -11.870637 67.189613 -14.720735 8.119484 27.948334 2.465699 -1.077611 -18.584829 7.110620 -11.322305 -44.481857 1.435765 29.445772 71.010025 30.362308 -13.461040 2.902455 -4.249943 0.119064 0.385908 0.074592
-222.072218 57.175677 136.099303 -179.227257 -29.561590 -1.108198 0.133103 19.424680 2.068451 -0.021075 2.385212 0.295654 -0.066863 3.823341 0.479172 0.011817 16.769335 2.114092 -1.875425 15.575495 -1.478973 -2.975809 -6.956744 -2.074338 3.327058 -1.495855 -2.078290 0.979174 -15.474852 -10.904553 136.281679 -50.189909 -125.242837 10.090526 -21.586198 -51.516483 -5.465905 -0.904477 -0.737887 25.371795 -8.911143 -1.910607 -152.143981 -37.715805 148.648203 -15.493094 -20.084342 35.461387 3.876872 -47.147700 -8.632812 -11.860025 67.199178 -14.717831 8.109343 27.939513 2.463520 -1.073662 -18.584477 7.113542 -11.323875 -44.510257 1.428729 29.452292 71.009080 30.366569 -13.467701 2.915757 -4.246083 0.113231 0.373546 0.071652
-222.072408 57.178845 136.093774 -179.213360 -29.530227 -1.116053 0.111061 19.374752 2.064515 -0.040926 2.323698 0.290152 -0.056433 3.837928 0.479062 -0.008041 16.723790 2.108919 -1.875632 15.542748 -1.492600 -2.954132 -6.940098 -2.100027 3.333930 -1.492224 -2.097808 0.952172 -15.476971 -10.901723 136.318829 -50.153816 -125.267128 10.089092 -21.586539 -51.521577 -5.422399 -0.829344 -0.739859 25.459755 -8.798528 -1.987721 -152.154474 -37.675933 148.630947 -15.490897 -20.088672 35.465420 3.837016 -47.178656 -8.605467 -11.860838 67.204119 -14.744085 8.107769 27.931815 2.453105 -1.100102 -18.580064 7.135718 -11.318507 -44.541335 1.424315 29.439696 71.011474 30.364045 -13.459739 2.928996 -4.243977 0.110459 0.361937 0.071657
-222.078906 57.181033 136.088841 -179.195806 -29.490730 -1.084691 0.077912 19.329050 2.020305 -0.052021 2.283662 0.285160 -0.060569 3.812105 0.476436 -0.028617 16.674689 2.102812 -1.870558 15.536326 -1.502542 -2.941030 -6.952090 -2.120379 3.338712 -1.477541 -2.115027 0.921850 -15.481044 -10.899154 136.370129 -50.115264 -125.308643 10.088385 -21.589250 -51.530410 -5.360801 -0.794985 -0.724640 25.537124 -8.647594 -2.059652 -152.170015 -37.635406 148.623856 -15.486725 -20.093934 35.466854 3.820138 -47.220105 -8.619995 -11.881401 67.211363 -14.805061 8.046602 27.946036 2.426763 -1.069438 -18.598979 7.146357 -11.254260 -44.585385 1.355754 29.358831 71.020660 30.303640 -13.471692 2.898555 -4.241692 0.135070 0.392484 0.077833
-222.079434 57.181320 136.086209 -179.178576 -29.430826 -1.085582 0.046170 19.239557 2.003212 -0.054087 2.263227 0.283589 -0.064640 3.784368 0.473333 -0.049192 16.621857 2.095264 -1.866323 15.528108 -1.510586 -2.930187 -6.967405 -2.136843 3.342401 -1.452358 -2.131253 0.917474 -15.431208 -10.880900 136.413887 -50.025279 -125.391696 10.091452 -21.595496 -51.544748 -5.295021 -0.748050 -0.707779 25.616749 -8.514508 -2.131219 -152.193835 -37.592917 148.632464 -15.484703 -20.101952 35.463011 3.800925 -47.281814 -8.619212 -11.899684 67.218680 -14.833722 8.000371 27.939974 2.422403 -1.020284 -18.598016 7.124988 -11.255012 -44.646336 1.354653 29.317038 71.033078 30.265278 -13.454278 2.891528 -4.226497 0.116145 0.398416 0.070627
-222.079671 57.183550 136.078765 -179.146424 -29.399065 -1.093208 0.001292 19.175424 1.986059 -0.055555 2.242548 0.281015 -0.068592 3.755122 0.469672 -0.069445 16.566024 2.085619 -1.862801 15.517904 -1.516245 -2.921443 -6.986373 -2.148595 3.345260 -1.418298 -2.147046 0.859756 -15.467771 -10.874273 136.491483 -50.004412 -125.440620 10.093939 -21.600638 -51.560193 -5.234409 -0.676913 -0.694548 25.703918 -8.417117 -2.201127 -152.219171 -37.545327 148.654870 -15.489163 -20.111584 35.459047 3.750902 -47.315934 -8.606320 -11.901386 67.243060 -14.858332 7.998704 27.897496 2.398139 -1.018335 -18.579782 7.144168 -11.273315 -44.678576 1.349138 29.306076 71.038267 30.253910 -13.447216 2.895420 -4.219411 0.116530 0.394666 0.066485
-222.079772 57.185012 136.071242 -179.135795 -29.363523 -1.088879 -0.034256 19.077165 1.961070 -0.048901 2.249345 0.282506 -0.072291 3.725448 0.465602 -0.089048 16.509171 2.074315 -1.860439 15.505324 -1.519716 -2.915634 -7.009748 -2.155806 3.348586 -1.377255 -2.162319 0.798414 -15.506892 -10.864173 136.572592 -49.975769 -125.502604 10.091964 -21.602472 -51.572514 -5.181488 -0.585147 -0.685737 25.798460 -8.357021 -2.270289 -152.242756 -37.490848 148.689656 -15.498984 -20.120280 35.459737 3.728798 -47.354780 -8.596679 -11.908601 67.258675 -14.887710 7.982188 27.880079 2.385170 -1.007876 -18.575941 7.151903 -11.274538 -44.715426 1.344735 29.282306 71.053085 30.224709 -13.423466 2.894808 -4.205568 0.102074 0.392497 0.058546
